<?xml version="1.0" encoding="UTF-8"?>
<svg id="Layer_1" data-name="Layer 1" xmlns="http://www.w3.org/2000/svg" viewBox="0 0 8 8">
  <defs>
    <style>
      .cls-1 {
        fill: #231f20;
      }
    </style>
  </defs>
  <polygon class="cls-1" points="3 1 4 1 4 0 3 0 2 0 1 0 1 1 2 1 3 1"/>
  <polygon class="cls-1" points="1 2 1 1 0 1 0 2 0 3 0 4 1 4 1 3 1 2"/>
  <polygon class="cls-1" points="7 6 7 5 6 5 6 4 5 4 5 3 5 2 5 1 4 1 4 2 4 3 4 4 3 4 2 4 1 4 1 5 2 5 3 5 4 5 4 6 5 6 5 7 6 7 6 8 7 8 8 8 8 7 8 6 7 6"/>
</svg>